<svg width="245" height="175" viewBox="0 0 245 175" fill="none" xmlns="http://www.w3.org/2000/svg">
<path d="M39.8771 148.598C39.8771 155.739 35.6314 158.233 30.3945 158.233C30.2725 158.233 30.1513 158.232 30.0307 158.229C29.7881 158.223 29.5476 158.213 29.3103 158.196C24.5835 157.862 20.9111 155.239 20.9111 148.598C20.9111 141.725 29.6926 133.052 30.3549 132.408L30.3562 132.408C30.3813 132.383 30.3944 132.37 30.3944 132.37C30.3944 132.37 39.8771 141.455 39.8771 148.598Z" fill="white"/>
<path d="M30.0487 157.14L33.5174 152.294L30.0401 157.672L30.0309 158.229C29.7884 158.223 29.5478 158.213 29.3105 158.196L29.6842 151.051L29.6816 150.995L29.6882 150.985L29.7231 150.31L26.2373 144.918L29.7337 149.804L29.7422 149.947L30.025 144.548L27.0407 138.977L30.0612 143.6L30.3552 132.408L30.3565 132.37V132.408L30.3077 141.233L33.2781 137.734L30.2952 141.993L30.2168 146.827L32.9908 142.188L30.2049 147.539L30.1614 150.226L34.1883 143.769L30.1462 151.163L30.0487 157.14Z" fill="#CACCCF"/>
<path d="M160.358 107.302C157.824 98.105 143.756 91.3267 132.78 89.5771V85.1594C132.983 85.0838 133.184 85.0059 133.385 84.9258C133.327 84.043 133.15 83.1721 132.858 82.337C137.546 80.4309 141.595 77.2285 144.53 73.1048C147.619 69.872 149.947 65.9899 151.344 61.7422C152.74 57.4944 153.17 52.9884 152.602 48.5532C152.034 44.118 150.482 39.8657 148.06 36.107C145.638 32.3483 142.407 29.1783 138.603 26.8283C139.646 26.1705 140.457 25.2017 140.92 24.0586C141.383 22.9155 141.476 21.6558 141.185 20.4572C140.894 19.2586 140.234 18.1815 139.299 17.378C138.363 16.5745 137.198 16.0851 135.97 15.9788C136.973 13.6099 137.152 10.9729 136.48 8.48985C135.807 6.00677 134.321 3.82108 132.259 2.28251C130.197 0.743941 127.679 -0.0585838 125.107 0.00333197C122.535 0.0652477 120.059 0.988025 118.073 2.62403C119.825 1.69215 121.787 1.22951 123.77 1.28115C125.754 1.33279 127.69 1.89693 129.39 2.91869C131.091 3.94044 132.498 5.38501 133.474 7.11181C134.451 8.83861 134.964 10.7888 134.964 12.7727C134.964 12.8736 134.958 12.973 134.955 13.0733C134.905 11.4093 134.494 9.7761 133.75 8.28663C133.007 6.79717 131.949 5.48698 130.649 4.4467C129.349 3.40643 127.839 2.66089 126.223 2.26165C124.607 1.86241 122.923 1.819 121.289 2.13443C119.654 2.44986 118.108 3.11659 116.756 4.08852C115.404 5.06044 114.28 6.31436 113.461 7.76354C112.642 9.21271 112.147 10.8226 112.011 12.4817C111.875 14.1409 112.101 15.8098 112.674 17.373C111.796 17.5627 110.975 17.9557 110.276 18.5203C109.577 19.0848 109.021 19.8053 108.651 20.6239C108.281 21.4424 108.108 22.3363 108.146 23.2338C108.184 24.1312 108.432 25.0073 108.87 25.7916C104.71 27.9771 101.122 31.1085 98.3934 34.9339C95.6649 38.7592 93.8725 43.1716 93.1604 47.816C92.4483 52.4604 92.8363 57.2071 94.2934 61.6742C95.7504 66.1413 98.2357 70.204 101.549 73.5353C104.341 77.2971 108.076 80.2563 112.376 82.1147V89.4783C101.283 91.0631 86.6745 97.9673 84.122 107.391C81.8976 115.603 79.5232 124.621 78.3418 129.916C88.4682 137.031 109.717 141.209 123.033 141.209C135.685 141.209 156.365 137.438 166.193 130.959C165.128 125.141 162.679 115.727 160.358 107.302ZM140.073 22.3522C140.073 22.4569 140.068 22.5605 140.063 22.6638C139.989 21.3652 139.476 20.1302 138.609 19.1605C137.742 18.1909 136.572 17.5439 135.29 17.3253C135.401 17.1369 135.507 16.9451 135.608 16.7501C136.876 17.0407 138.009 17.7531 138.82 18.7707C139.631 19.7883 140.072 21.051 140.073 22.3522Z" fill="url(#paint0_linear)"/>
<path d="M123.011 139.198C135.303 139.198 155.393 135.534 164.941 129.24C163.907 123.587 161.528 114.441 159.273 106.256C156.401 95.8314 138.275 88.6045 127.462 88.6045H117.042C106.196 88.6045 88.0441 95.8733 85.2084 106.342C83.0473 114.32 80.7405 123.082 79.5928 128.226C89.4307 135.139 110.074 139.198 123.011 139.198Z" fill="#99C354"/>
<path d="M122.813 82.0484C138.918 82.0484 151.974 68.9926 151.974 52.8875C151.974 36.7823 138.918 23.7266 122.813 23.7266C106.708 23.7266 93.6523 36.7823 93.6523 52.8875C93.6523 68.9926 106.708 82.0484 122.813 82.0484Z" fill="#25282B"/>
<path d="M114.941 73.1563H130.198C130.803 73.1563 131.384 73.3968 131.812 73.8249C132.24 74.253 132.481 74.8336 132.481 75.4391V91.0391C132.481 92.27 132.238 93.4889 131.767 94.6261C131.296 95.7633 130.606 96.7966 129.735 97.667C128.865 98.5374 127.832 99.2278 126.695 99.6988C125.557 100.17 124.339 100.412 123.108 100.412H122.031C120.801 100.412 119.582 100.17 118.444 99.6988C117.307 99.2278 116.274 98.5374 115.404 97.667C114.533 96.7966 113.843 95.7633 113.372 94.6261C112.901 93.4889 112.658 92.27 112.658 91.0391V75.4391C112.658 75.1393 112.717 74.8424 112.832 74.5655C112.947 74.2885 113.115 74.0368 113.327 73.8249C113.539 73.6129 113.79 73.4447 114.067 73.33C114.344 73.2153 114.641 73.1562 114.941 73.1563Z" fill="#FDA57D"/>
<path opacity="0.05" d="M123.485 86.3644C126.768 86.3663 130.021 85.7395 133.068 84.5178C132.912 82.111 131.846 79.8538 130.087 78.2041C128.327 76.5544 126.006 75.6359 123.595 75.6348H122.782C120.41 75.6353 118.125 76.5227 116.374 78.1227C114.623 79.7227 113.534 81.9196 113.32 84.2817C116.532 85.6595 119.99 86.3681 123.485 86.3644Z" fill="black"/>
<path d="M122.865 83.8861C137.113 83.8861 148.663 72.3357 148.663 58.0876C148.663 43.8395 137.113 32.2891 122.865 32.2891C108.617 32.2891 97.0664 43.8395 97.0664 58.0876C97.0664 72.3357 108.617 83.8861 122.865 83.8861Z" fill="#FDA57D"/>
<path d="M114.127 29.9307C117.211 29.9307 119.711 27.4307 119.711 24.3467C119.711 21.2627 117.211 18.7627 114.127 18.7627C111.043 18.7627 108.543 21.2627 108.543 24.3467C108.543 27.4307 111.043 29.9307 114.127 29.9307Z" fill="#25282B"/>
<path d="M133.981 29.9307C137.065 29.9307 139.565 27.4307 139.565 24.3467C139.565 21.2627 137.065 18.7627 133.981 18.7627C130.898 18.7627 128.397 21.2627 128.397 24.3467C128.397 27.4307 130.898 29.9307 133.981 29.9307Z" fill="#25282B"/>
<path d="M123.434 26.209C129.602 26.209 134.602 21.209 134.602 15.041C134.602 8.87313 129.602 3.87305 123.434 3.87305C117.266 3.87305 112.266 8.87313 112.266 15.041C112.266 21.209 117.266 26.209 123.434 26.209Z" fill="#25282B"/>
<path d="M135.223 17.5215C134.112 17.5198 133.027 17.8507 132.106 18.4716C133.388 18.0139 134.792 18.0398 136.055 18.5445C137.318 19.0492 138.354 19.998 138.967 21.2124C139.58 22.4269 139.728 23.8234 139.384 25.1396C139.04 26.4557 138.227 27.6009 137.098 28.3598C138.337 27.9185 139.381 27.0534 140.045 25.9173C140.708 24.7813 140.949 23.4473 140.725 22.1508C140.501 20.8544 139.826 19.6789 138.819 18.8319C137.812 17.9849 136.538 17.5207 135.223 17.5215Z" fill="#25282B"/>
<path d="M125.295 2.01076C122.703 2.00682 120.19 2.90852 118.192 4.56005C120.637 3.26061 123.476 2.91527 126.161 3.59102C128.845 4.26676 131.183 5.91543 132.72 8.21723C134.258 10.519 134.886 13.3099 134.482 16.0484C134.079 18.787 132.672 21.2781 130.536 23.0384C132.737 21.8691 134.483 19.9974 135.497 17.7211C136.511 15.4447 136.734 12.8947 136.132 10.4768C135.529 8.05882 134.135 5.91195 132.171 4.37782C130.207 2.84368 127.787 2.01046 125.295 2.01076Z" fill="#25282B"/>
<path d="M104.2 34.8945C104.2 34.8945 107.302 55.3692 146.39 44.2012L127.157 27.4492L104.2 34.8945Z" fill="#25282B"/>
<path d="M38.5766 152.149H22.5155C19.5287 152.149 17.1074 154.571 17.1074 157.558V158.178C17.1074 161.165 19.5287 163.587 22.5155 163.587H38.5766C41.5634 163.587 43.9847 161.165 43.9847 158.178V157.558C43.9847 154.571 41.5634 152.149 38.5766 152.149Z" fill="#99C354"/>
<g opacity="0.7">
<path opacity="0.7" d="M225.116 144.844V140.723H204.51V159.783C204.51 160.849 204.933 161.871 205.687 162.624C206.44 163.378 207.462 163.801 208.528 163.801H221.098C222.163 163.801 223.185 163.378 223.939 162.624C224.692 161.871 225.116 160.849 225.116 159.783V155.559C226.537 155.559 227.899 154.994 228.904 153.99C229.909 152.985 230.473 151.622 230.473 150.201C230.473 148.78 229.909 147.418 228.904 146.413C227.899 145.408 226.537 144.844 225.116 144.844ZM225.116 153.498V146.904C225.989 146.905 226.827 147.253 227.445 147.871C228.062 148.49 228.409 149.328 228.409 150.201C228.409 151.075 228.062 151.913 227.445 152.531C226.827 153.15 225.989 153.497 225.116 153.498Z" fill="url(#paint1_linear)"/>
</g>
<path d="M224.452 145.488C223.485 145.488 222.539 145.775 221.735 146.313C220.93 146.85 220.303 147.614 219.933 148.508C219.563 149.402 219.466 150.385 219.655 151.334C219.843 152.283 220.309 153.155 220.993 153.839C221.677 154.523 222.549 154.989 223.498 155.178C224.447 155.366 225.43 155.27 226.324 154.899C227.218 154.529 227.982 153.902 228.519 153.098C229.057 152.293 229.344 151.347 229.344 150.38C229.344 149.738 229.217 149.101 228.972 148.508C228.726 147.915 228.365 147.375 227.911 146.921C227.457 146.467 226.918 146.106 226.324 145.861C225.731 145.615 225.095 145.488 224.452 145.488ZM224.452 153.39C223.857 153.39 223.275 153.214 222.78 152.883C222.285 152.552 221.899 152.082 221.671 151.532C221.443 150.982 221.384 150.377 221.5 149.793C221.616 149.209 221.903 148.672 222.324 148.251C222.745 147.83 223.281 147.544 223.865 147.428C224.449 147.311 225.054 147.371 225.604 147.599C226.154 147.827 226.624 148.213 226.955 148.708C227.286 149.203 227.462 149.785 227.462 150.38C227.462 151.178 227.145 151.944 226.581 152.509C226.016 153.073 225.251 153.39 224.452 153.39Z" fill="#6C63FF"/>
<path opacity="0.1" d="M224.452 145.488C223.485 145.488 222.539 145.775 221.735 146.313C220.93 146.85 220.303 147.614 219.933 148.508C219.563 149.402 219.466 150.385 219.655 151.334C219.843 152.283 220.309 153.155 220.993 153.839C221.677 154.523 222.549 154.989 223.498 155.178C224.447 155.366 225.43 155.27 226.324 154.899C227.218 154.529 227.982 153.902 228.519 153.098C229.057 152.293 229.344 151.347 229.344 150.38C229.344 149.738 229.217 149.101 228.972 148.508C228.726 147.915 228.365 147.375 227.911 146.921C227.457 146.467 226.918 146.106 226.324 145.861C225.731 145.615 225.095 145.488 224.452 145.488ZM224.452 153.39C223.857 153.39 223.275 153.214 222.78 152.883C222.285 152.552 221.899 152.082 221.671 151.532C221.443 150.982 221.384 150.377 221.5 149.793C221.616 149.209 221.903 148.672 222.324 148.251C222.745 147.83 223.281 147.544 223.865 147.428C224.449 147.311 225.054 147.371 225.604 147.599C226.154 147.827 226.624 148.213 226.955 148.708C227.286 149.203 227.462 149.785 227.462 150.38C227.462 151.178 227.145 151.944 226.581 152.509C226.016 153.073 225.251 153.39 224.452 153.39Z" fill="black"/>
<path d="M205.639 141.727H224.453V159.11C224.453 160.088 224.064 161.027 223.373 161.718C222.681 162.41 221.743 162.798 220.765 162.798H209.327C208.349 162.798 207.411 162.41 206.719 161.718C206.027 161.027 205.639 160.088 205.639 159.11V141.727Z" fill="#99C354"/>
<path d="M244.207 162.798H0V171.076H244.207V162.798Z" fill="#76ABDE"/>
<g opacity="0.7">
<path opacity="0.7" d="M168.546 102.993H75.6615C72.6324 102.993 70.1768 105.449 70.1768 108.478V157.312C70.1768 160.341 72.6324 162.797 75.6615 162.797H168.546C171.575 162.797 174.031 160.341 174.031 157.312V108.478C174.031 105.449 171.575 102.993 168.546 102.993Z" fill="url(#paint2_linear)"/>
</g>
<path d="M161.998 104.098H82.2083C76.6022 104.098 72.0576 108.642 72.0576 114.248V152.647C72.0576 158.253 76.6022 162.798 82.2083 162.798H161.998C167.604 162.798 172.149 158.253 172.149 152.647V114.248C172.149 108.642 167.604 104.098 161.998 104.098Z" fill="#D9DCEE"/>
<path d="M233.859 171.075H10.3477V174.462H233.859V171.075Z" fill="#6B9AC8"/>
<path opacity="0.1" d="M233.859 171.075H10.3477V172.204H233.859V171.075Z" fill="black"/>
<path opacity="0.1" d="M221.066 141.727V159.13C221.066 160.103 220.68 161.036 219.992 161.724C219.304 162.412 218.37 162.798 217.397 162.798H219.279C220.252 162.798 221.185 162.412 221.873 161.724C222.561 161.036 222.948 160.103 222.948 159.13V141.727H221.066Z" fill="black"/>
<path d="M209.351 127.699C209.19 127.704 209.032 127.745 208.888 127.818C208.745 127.891 208.619 127.994 208.52 128.121C208.273 128.569 208.72 129.073 209.128 129.38C209.882 129.948 210.677 130.506 211.19 131.299C211.702 132.092 211.863 133.198 211.303 133.958C210.571 134.95 208.826 135.163 208.657 136.384C208.549 137.168 209.226 137.837 209.913 138.23C211.608 139.201 213.792 139.46 215.02 140.979C215.528 139.934 216.664 139.331 217.796 139.073C218.928 138.815 220.104 138.835 221.252 138.66C221.44 138.656 221.624 138.608 221.789 138.521C221.955 138.433 222.098 138.307 222.206 138.154C222.527 137.503 221.612 136.722 221.928 136.068C222.168 135.57 222.874 135.609 223.389 135.41C224.228 135.085 224.574 134.005 224.336 133.138C224.098 132.27 223.425 131.592 222.718 131.036C220.811 129.538 218.519 128.657 216.2 128.023C215.122 127.728 213.856 127.266 212.735 127.222C211.654 127.178 210.421 127.516 209.351 127.699Z" fill="#EEEEEE"/>
<defs>
<linearGradient id="paint0_linear" x1="122.267" y1="141.209" x2="122.267" y2="0" gradientUnits="userSpaceOnUse">
<stop stop-color="#808080" stop-opacity="0.25"/>
<stop offset="0.53514" stop-color="#808080" stop-opacity="0.12"/>
<stop offset="1" stop-color="#808080" stop-opacity="0.1"/>
</linearGradient>
<linearGradient id="paint1_linear" x1="19509.8" y1="16499.2" x2="19509.8" y2="15091.1" gradientUnits="userSpaceOnUse">
<stop stop-color="#808080" stop-opacity="0.25"/>
<stop offset="0.53514" stop-color="#808080" stop-opacity="0.12"/>
<stop offset="1" stop-color="#808080" stop-opacity="0.1"/>
</linearGradient>
<linearGradient id="paint2_linear" x1="33594.6" y1="32586" x2="33594.6" y2="23131" gradientUnits="userSpaceOnUse">
<stop stop-color="#808080" stop-opacity="0.25"/>
<stop offset="0.53514" stop-color="#808080" stop-opacity="0.12"/>
<stop offset="1" stop-color="#808080" stop-opacity="0.1"/>
</linearGradient>
</defs>
</svg>
